<?xml version="1.0" encoding="UTF-8" standalone="no"?>
<!DOCTYPE svg PUBLIC "-//W3C//DTD SVG 1.1//EN" "http://www.w3.org/Graphics/SVG/1.1/DTD/svg11.dtd">
<svg version="1.1" xmlns="http://www.w3.org/2000/svg" xmlns:xlink="http://www.w3.org/1999/xlink" preserveAspectRatio="xMidYMid meet" viewBox="0 0 640 640" width="640" height="640"><defs><path d="M449.98 454.99C449.98 556.51 398.23 619.97 312.48 619.97C226.74 619.97 172.6 556.51 172.6 454.99C172.6 353.48 226.74 252.12 312.48 252.12C398.23 252.12 449.98 353.48 449.98 454.99Z" id="f2of9csU0l"></path><path d="M355.52 199.17L316.83 199.17L278.14 199.17C278.72 185.71 279.08 177.3 279.23 173.94C281.07 131.33 289.89 89.32 305.34 49.57C306.87 45.63 310.7 35.78 316.83 20.03C318.24 33.33 319.13 41.65 319.48 44.97C324.05 87.94 333.1 130.31 346.47 171.39C347.68 175.09 350.69 184.35 355.52 199.17Z" id="a13LIfU6cA"></path><path d="M331.23 227.97L292.9 233.24L254.58 238.52C253.66 228.41 253.09 222.1 252.86 219.57C249.02 177.14 252.64 134.36 263.56 93.18C264.44 89.84 266.65 81.49 270.2 68.13C272.69 77.89 274.25 83.99 274.88 86.43C285.58 128.27 300.92 168.79 320.61 207.23C322.03 210 325.57 216.91 331.23 227.97Z" id="e30zb1JGY"></path><path d="M313.08 246.13L278.71 263.57L244.34 281.01C245.49 265.45 246.21 255.73 246.5 251.84C248.28 227.64 243.45 203.42 232.51 181.76C229.36 175.51 221.47 159.88 208.84 134.88C234.52 155.96 250.58 169.14 257 174.41C272.42 187.07 285.68 202.17 296.23 219.1C298.48 222.71 304.09 231.72 313.08 246.13Z" id="fUjRVUrlT"></path><path d="M276.86 266.96L255.04 278.04L233.23 289.12C233.75 278.88 234.08 272.47 234.21 269.91C235.2 250.32 231.05 230.82 222.17 213.33C221.07 211.16 218.31 205.72 213.89 197.03C220.76 201.25 225.06 203.88 226.78 204.94C244.42 215.76 258.72 231.27 268.1 249.72C269.27 252.02 272.19 257.77 276.86 266.96Z" id="acWH8Ov1O"></path><path d="M301.52 241.05L335.89 258.49L370.26 275.93C369.41 258.87 368.88 248.21 368.67 243.94C367.46 219.67 372.59 195.5 383.55 173.81C387.01 166.96 395.66 149.82 409.51 122.41C382.47 145.52 365.56 159.97 358.8 165.75C343.62 178.72 330.56 193.98 320.07 210.97C317.6 214.98 311.42 225.01 301.52 241.05Z" id="b1ChVfN8Dt"></path><path d="M298.95 248.08L337.64 248.08L376.33 248.08C375.93 239.84 375.68 234.7 375.58 232.64C373.52 190.11 363.73 148.31 346.7 109.29C345.49 106.53 342.47 99.61 337.64 88.55C336.67 96.68 336.07 101.75 335.82 103.79C330.7 146.66 320.63 188.8 305.8 229.35C304.89 231.85 302.6 238.09 298.95 248.08Z" id="j1ALMAjeR1"></path><path d="M337.64 259.41L363.99 274.77L390.33 290.12C390.29 277.9 390.27 270.26 390.26 267.2C390.18 242.77 396.63 218.77 408.93 197.66C410.37 195.2 413.96 189.03 419.71 179.17C411.26 183.59 405.99 186.35 403.88 187.46C381.03 199.42 362.03 217.58 349.04 239.85C347.52 242.46 343.72 248.98 337.64 259.41Z" id="a20CNfIp9"></path><path d="M354.15 267.59L313.08 267.59L272.01 267.59C272.01 267.58 272.01 267.58 272.01 267.58C274.71 225.3 287.1 184.2 308.22 147.48C308.86 146.35 310.49 143.53 313.08 139.02C313.09 139.07 313.09 139.1 313.09 139.11C319.79 181.68 332.69 223.03 351.39 261.86C351.76 262.62 352.68 264.53 354.15 267.59Z" id="iKi9kGP4P"></path><path d="M411.48 330.02C412.92 328.95 414.92 329.09 416.19 330.36C416.68 330.85 415.92 330.09 416.41 330.58C417.6 331.77 417.52 333.72 416.24 334.82C392.93 354.77 386.16 360.57 378.05 367.51C325.88 412.17 277.28 460.84 232.71 513.08C226.18 520.73 221.61 526.09 202.1 548.96C201 550.24 199.05 550.32 197.86 549.13C197.38 548.64 198.13 549.39 197.64 548.91C196.38 547.64 196.23 545.63 197.31 544.2C215.92 519.36 221.53 511.88 228.05 503.17C269.37 448.03 318.44 399.15 373.75 358.05C381.8 352.07 387.25 348.02 411.48 330.02Z" id="bxYtbB78x"></path><path d="M210.86 334.1C209.09 332.86 206.68 333.08 205.15 334.6C204.57 335.18 205.47 334.28 204.89 334.86C203.48 336.28 203.58 338.61 205.13 339.89C228.68 359.44 222.78 354.55 227.91 358.81C291.09 411.24 349.21 469.48 401.53 532.75C405.38 537.41 399.31 530.06 418.42 553.17C419.69 554.72 422.02 554.83 423.44 553.41C424.02 552.83 423.12 553.73 423.7 553.15C425.23 551.62 425.43 549.22 424.18 547.46C406.26 522.11 410.32 527.86 406.32 522.19C358.82 455.04 300.1 396.59 232.72 349.41C227.74 345.92 235.59 351.43 210.86 334.1Z" id="a6zW2jxNd"></path><path d="M358.76 283.35C360.28 282.29 362.34 282.47 363.65 283.78C364.15 284.28 363.38 283.51 363.87 284C365.09 285.22 365 287.22 363.67 288.31C343.49 305.07 348.54 300.88 344.14 304.53C289.99 349.47 240.17 399.39 195.33 453.62C192.03 457.62 197.23 451.32 180.85 471.13C179.76 472.45 177.76 472.55 176.55 471.33C176.05 470.83 176.82 471.61 176.33 471.11C175.02 469.8 174.84 467.74 175.91 466.23C191.28 444.5 187.79 449.43 191.23 444.57C231.93 387.01 282.27 336.91 340.02 296.48C344.3 293.48 337.56 298.2 358.76 283.35Z" id="i4CqtTl9H"></path><path d="M376.47 591.6C377.98 592.67 380.04 592.5 381.34 591.19C381.84 590.7 381.07 591.47 381.57 590.97C382.78 589.75 382.7 587.75 381.38 586.65C360.3 569.01 362.45 570.81 357.1 566.33C303.13 521.16 253.31 471.24 208.23 417.19C204.12 412.27 206.99 415.71 189.74 395.03C188.64 393.71 186.64 393.62 185.43 394.83C184.93 395.33 185.7 394.56 185.21 395.06C183.9 396.36 183.73 398.42 184.81 399.92C201.07 422.55 199.73 420.68 203.92 426.52C245.09 483.81 295.42 533.92 352.9 574.82C358.13 578.55 354.39 575.89 376.47 591.6Z" id="e1kc14yxU"></path><path d="M261.66 279.57C260.14 278.51 258.08 278.69 256.77 280C256.27 280.49 257.04 279.72 256.54 280.22C255.33 281.43 255.42 283.43 256.74 284.53C276.93 301.29 271.88 297.09 276.28 300.74C330.42 345.69 380.25 395.6 425.09 449.84C428.39 453.83 423.19 447.54 439.57 467.34C440.66 468.67 442.66 468.76 443.87 467.55C444.37 467.05 443.6 467.82 444.09 467.32C445.4 466.02 445.58 463.95 444.51 462.44C429.14 440.72 432.63 445.64 429.19 440.79C388.49 383.23 338.15 333.13 280.4 292.69C276.12 289.7 282.86 294.42 261.66 279.57Z" id="d2kIAwphKH"></path><path d="M249.87 594.17C248.12 595.35 245.77 595.13 244.27 593.63C243.71 593.07 244.59 593.95 244.02 593.38C242.64 592 242.76 589.73 244.27 588.5C265.24 571.43 252.9 581.47 255.77 579.14C317.82 528.61 374.5 471.81 424.9 409.65C426.88 407.21 415.83 420.85 432.51 400.27C433.73 398.76 436 398.64 437.38 400.02C437.94 400.59 437.07 399.71 437.63 400.27C439.13 401.77 439.35 404.12 438.16 405.86C422.67 428.57 431.25 415.98 429.01 419.27C383.89 485.43 326.61 542.41 260.21 587.2C257.54 589 272.04 579.22 249.87 594.17Z" id="aRHxoOXGD"></path></defs><g><g><g><use xlink:href="#f2of9csU0l" opacity="1" fill="#6074fb" fill-opacity="1"></use></g><g><use xlink:href="#a13LIfU6cA" opacity="1" fill="#180080" fill-opacity="1"></use></g><g><use xlink:href="#e30zb1JGY" opacity="1" fill="#7e29a5" fill-opacity="1"></use></g><g><use xlink:href="#fUjRVUrlT" opacity="1" fill="#6900a2" fill-opacity="1"></use></g><g><use xlink:href="#acWH8Ov1O" opacity="1" fill="#3218bf" fill-opacity="1"></use></g><g><use xlink:href="#b1ChVfN8Dt" opacity="1" fill="#4700a2" fill-opacity="1"></use></g><g><use xlink:href="#j1ALMAjeR1" opacity="1" fill="#9429a5" fill-opacity="1"></use></g><g><use xlink:href="#a20CNfIp9" opacity="1" fill="#181cbf" fill-opacity="1"></use></g><g><use xlink:href="#iKi9kGP4P" opacity="1" fill="#000995" fill-opacity="1"></use></g><g><use xlink:href="#bxYtbB78x" opacity="1" fill="#770bb1" fill-opacity="1"></use></g><g><use xlink:href="#a6zW2jxNd" opacity="1" fill="#770bb1" fill-opacity="1"></use></g><g><use xlink:href="#i4CqtTl9H" opacity="1" fill="#770bb1" fill-opacity="1"></use></g><g><use xlink:href="#e1kc14yxU" opacity="1" fill="#770bb1" fill-opacity="1"></use></g><g><use xlink:href="#d2kIAwphKH" opacity="1" fill="#770bb1" fill-opacity="1"></use></g><g><use xlink:href="#aRHxoOXGD" opacity="1" fill="#770bb1" fill-opacity="1"></use></g></g></g></svg>