<?xml version="1.0" encoding="UTF-8" standalone="no"?>
<!DOCTYPE svg PUBLIC "-//W3C//DTD SVG 1.1//EN" "http://www.w3.org/Graphics/SVG/1.1/DTD/svg11.dtd">
<svg version="1.1" xmlns="http://www.w3.org/2000/svg" xmlns:xlink="http://www.w3.org/1999/xlink" preserveAspectRatio="xMidYMid meet" viewBox="0 0 640 640" width="640" height="640"><defs><path d="M449.98 454.99C449.98 556.51 398.23 619.97 312.48 619.97C226.74 619.97 172.6 556.51 172.6 454.99C172.6 353.48 226.74 252.12 312.48 252.12C398.23 252.12 449.98 353.48 449.98 454.99Z" id="aqdeyqDrx"></path><path d="M355.52 199.17L316.83 199.17L278.14 199.17C278.72 185.71 279.08 177.3 279.23 173.94C281.07 131.33 289.89 89.32 305.34 49.57C306.87 45.63 310.7 35.78 316.83 20.03C318.24 33.33 319.13 41.65 319.48 44.97C324.05 87.94 333.1 130.31 346.47 171.39C347.68 175.09 350.69 184.35 355.52 199.17Z" id="b2zDQaRxlU"></path><path d="M331.23 227.97L292.9 233.24L254.58 238.52C253.66 228.41 253.09 222.1 252.86 219.57C249.02 177.14 252.64 134.36 263.56 93.18C264.44 89.84 266.65 81.49 270.2 68.13C272.69 77.89 274.25 83.99 274.88 86.43C285.58 128.27 300.92 168.79 320.61 207.23C322.03 210 325.57 216.91 331.23 227.97Z" id="a1cfMkwhE3"></path><path d="M313.08 246.13L278.71 263.57L244.34 281.01C245.49 265.45 246.21 255.73 246.5 251.84C248.28 227.64 243.45 203.42 232.51 181.76C229.36 175.51 221.47 159.88 208.84 134.88C234.52 155.96 250.58 169.14 257 174.41C272.42 187.07 285.68 202.17 296.23 219.1C298.48 222.71 304.09 231.72 313.08 246.13Z" id="gzsvMP9lm"></path><path d="M276.86 266.96L255.04 278.04L233.23 289.12C233.75 278.88 234.08 272.47 234.21 269.91C235.2 250.32 231.05 230.82 222.17 213.33C221.07 211.16 218.31 205.72 213.89 197.03C220.76 201.25 225.06 203.88 226.78 204.94C244.42 215.76 258.72 231.27 268.1 249.72C269.27 252.02 272.19 257.77 276.86 266.96Z" id="f2bekUuXbn"></path><path d="M301.52 241.05L335.89 258.49L370.26 275.93C369.41 258.87 368.88 248.21 368.67 243.94C367.46 219.67 372.59 195.5 383.55 173.81C387.01 166.96 395.66 149.82 409.51 122.41C382.47 145.52 365.56 159.97 358.8 165.75C343.62 178.72 330.56 193.98 320.07 210.97C317.6 214.98 311.42 225.01 301.52 241.05Z" id="aWenVK18r"></path><path d="M298.95 248.08L337.64 248.08L376.33 248.08C375.93 239.84 375.68 234.7 375.58 232.64C373.52 190.11 363.73 148.31 346.7 109.29C345.49 106.53 342.47 99.61 337.64 88.55C336.67 96.68 336.07 101.75 335.82 103.79C330.7 146.66 320.63 188.8 305.8 229.35C304.89 231.85 302.6 238.09 298.95 248.08Z" id="a2dBijOTO"></path><path d="M337.64 259.41L363.99 274.77L390.33 290.12C390.29 277.9 390.27 270.26 390.26 267.2C390.18 242.77 396.63 218.77 408.93 197.66C410.37 195.2 413.96 189.03 419.71 179.17C411.26 183.59 405.99 186.35 403.88 187.46C381.03 199.42 362.03 217.58 349.04 239.85C347.52 242.46 343.72 248.98 337.64 259.41Z" id="a10cDmf2Gq"></path><path d="M354.52 268.59L313.45 268.59L272.38 268.59C272.38 268.58 272.38 268.58 272.38 268.58C275.08 226.3 287.46 185.2 308.58 148.48C309.23 147.35 310.85 144.53 313.45 140.02C313.45 140.07 313.46 140.1 313.46 140.11C320.16 182.68 333.06 224.03 351.76 262.86C352.12 263.62 353.05 265.53 354.52 268.59Z" id="b1VwS7YvJQ"></path><path d="M413.05 327.46C414.48 326.38 416.49 326.53 417.76 327.8C418.24 328.28 417.49 327.53 417.97 328.01C419.17 329.21 419.09 331.16 417.81 332.26C394.14 352.57 386.22 359.37 377.73 366.65C325.61 411.37 277.01 460.04 232.37 512.23C225.51 520.25 219.97 526.74 200.1 549.96C199.01 551.24 197.05 551.32 195.86 550.13C195.38 549.64 196.13 550.39 195.64 549.91C194.38 548.64 194.24 546.64 195.31 545.2C214.28 520.01 220.82 511.32 227.67 502.22C269.12 447.16 318.19 398.28 373.42 357.05C381.84 350.75 388.47 345.81 413.05 327.46Z" id="a1BvBIZntd"></path><path d="M209.86 333.1C208.09 331.86 205.68 332.08 204.15 333.6C203.57 334.18 204.47 333.28 203.89 333.86C202.48 335.28 202.58 337.61 204.13 338.89C227.68 358.44 221.78 353.55 226.91 357.81C290.09 410.24 348.21 468.48 400.53 531.75C404.38 536.41 398.31 529.06 417.42 552.17C418.69 553.72 421.02 553.83 422.44 552.41C423.02 551.83 422.12 552.73 422.7 552.15C424.23 550.62 424.43 548.22 423.18 546.46C405.26 521.11 409.32 526.86 405.32 521.19C357.82 454.04 299.1 395.59 231.72 348.41C226.74 344.92 234.59 350.43 209.86 333.1Z" id="bHl3NkSsT"></path><path d="M358.76 283.35C360.28 282.29 362.34 282.47 363.65 283.78C364.15 284.28 363.38 283.51 363.87 284C365.09 285.22 365 287.22 363.67 288.31C343.49 305.07 348.54 300.88 344.14 304.53C289.99 349.47 240.17 399.39 195.33 453.62C192.03 457.62 197.23 451.32 180.85 471.13C179.76 472.45 177.76 472.55 176.55 471.33C176.05 470.83 176.82 471.61 176.33 471.11C175.02 469.8 174.84 467.74 175.91 466.23C191.28 444.5 187.79 449.43 191.23 444.57C231.93 387.01 282.27 336.91 340.02 296.48C344.3 293.48 337.56 298.2 358.76 283.35Z" id="a1sPsYLKGT"></path><path d="M376.47 591.6C377.98 592.67 380.04 592.5 381.34 591.19C381.84 590.7 381.07 591.47 381.57 590.97C382.78 589.75 382.7 587.75 381.38 586.65C360.3 569.01 362.45 570.81 357.1 566.33C303.13 521.16 253.31 471.24 208.23 417.19C204.12 412.27 206.99 415.71 189.74 395.03C188.64 393.71 186.64 393.62 185.43 394.83C184.93 395.33 185.7 394.56 185.21 395.06C183.9 396.36 183.73 398.42 184.81 399.92C201.07 422.55 199.73 420.68 203.92 426.52C245.09 483.81 295.42 533.92 352.9 574.82C358.13 578.55 354.39 575.89 376.47 591.6Z" id="g6J6jx9wyH"></path><path d="M261.66 279.57C260.14 278.51 258.08 278.69 256.77 280C256.27 280.49 257.04 279.72 256.54 280.22C255.33 281.43 255.42 283.43 256.74 284.53C276.93 301.29 271.88 297.09 276.28 300.74C330.42 345.69 380.25 395.6 425.09 449.84C428.39 453.83 423.19 447.54 439.57 467.34C440.66 468.67 442.66 468.76 443.87 467.55C444.37 467.05 443.6 467.82 444.09 467.32C445.4 466.02 445.58 463.95 444.51 462.44C429.14 440.72 432.63 445.64 429.19 440.79C388.49 383.23 338.15 333.13 280.4 292.69C276.12 289.7 282.86 294.42 261.66 279.57Z" id="a3mMvGmR7H"></path><path d="M249.87 594.17C248.12 595.35 245.77 595.13 244.27 593.63C243.71 593.07 244.59 593.95 244.02 593.38C242.64 592 242.76 589.73 244.27 588.5C265.24 571.43 252.9 581.47 255.77 579.14C317.82 528.61 374.5 471.81 424.9 409.65C426.88 407.21 415.83 420.85 432.51 400.27C433.73 398.76 436 398.64 437.38 400.02C437.94 400.59 437.07 399.71 437.63 400.27C439.13 401.77 439.35 404.12 438.16 405.86C422.67 428.57 431.25 415.98 429.01 419.27C383.89 485.43 326.61 542.41 260.21 587.2C257.54 589 272.04 579.22 249.87 594.17Z" id="dnzFMzRTe"></path></defs><g><g><g><use xlink:href="#aqdeyqDrx" opacity="1" fill="#f8ef65" fill-opacity="1"></use></g><g><use xlink:href="#b2zDQaRxlU" opacity="1" fill="#2d8000" fill-opacity="1"></use></g><g><use xlink:href="#a1cfMkwhE3" opacity="1" fill="#54a529" fill-opacity="1"></use></g><g><use xlink:href="#gzsvMP9lm" opacity="1" fill="#22a200" fill-opacity="1"></use></g><g><use xlink:href="#f2bekUuXbn" opacity="1" fill="#3bbf18" fill-opacity="1"></use></g><g><use xlink:href="#aWenVK18r" opacity="1" fill="#22a200" fill-opacity="1"></use></g><g><use xlink:href="#a2dBijOTO" opacity="1" fill="#54a529" fill-opacity="1"></use></g><g><use xlink:href="#a10cDmf2Gq" opacity="1" fill="#3bbf18" fill-opacity="1"></use></g><g><use xlink:href="#b1VwS7YvJQ" opacity="1" fill="#349500" fill-opacity="1"></use></g><g><use xlink:href="#a1BvBIZntd" opacity="1" fill="#fbc160" fill-opacity="1"></use></g><g><use xlink:href="#bHl3NkSsT" opacity="1" fill="#fbc160" fill-opacity="1"></use></g><g><use xlink:href="#a1sPsYLKGT" opacity="1" fill="#fbc160" fill-opacity="1"></use></g><g><use xlink:href="#g6J6jx9wyH" opacity="1" fill="#fbc160" fill-opacity="1"></use></g><g><use xlink:href="#a3mMvGmR7H" opacity="1" fill="#fbc160" fill-opacity="1"></use></g><g><use xlink:href="#dnzFMzRTe" opacity="1" fill="#fbc160" fill-opacity="1"></use></g></g></g></svg>